<svg version="1.1" xmlns="http://www.w3.org/2000/svg" xmlns:xlink="http://www.w3.org/1999/xlink" width="21.2442" height="15.09331" viewBox="0,0,21.2442,15.09331"><g transform="translate(-299.64803,-172.45335)"><g fill="#ffffff" stroke="#000000" stroke-width="1.5" stroke-miterlimit="10"><path d="M303.30484,178.04311c2.36026,-0.67578 5.31051,-0.02787 8.02553,-0.44051c0.71464,-0.10861 0.10355,-4.29144 0.43098,-4.38074c1.54828,-0.42226 8.38661,6.52116 8.38089,6.59193c-0.01347,0.16662 -4.74432,5.77331 -5.76089,6.38513c-3.28576,1.97754 -1.55932,-1.4456 -2.33763,-3.11179c-0.29547,-0.63253 -1.93006,-0.52277 -2.90427,-0.48452c-1.22809,0.04822 -7.06109,1.10297 -7.67448,0.02954c0,0 -1.43464,-1.6849 -1.06693,-2.89124c0.30463,-0.9994 2.35452,-1.53966 2.90681,-1.69778z"/></g></g></svg>