<svg version="1.1" xmlns="http://www.w3.org/2000/svg" xmlns:xlink="http://www.w3.org/1999/xlink" width="18.05897" height="24.01051" viewBox="0,0,18.05897,24.01051"><g transform="translate(-318.79161,-178.94832)"><g fill="#ffffff" stroke="#000000" stroke-miterlimit="10"><path d="M336.25202,192.70054c0.47231,1.0393 -4.02856,0.91994 -4.16069,1.47016c-0.14484,0.60315 2.51921,4.74271 2.21038,5.57019c-0.32736,1.12939 -3.76338,2.56754 -4.1347,2.71794c-0.74413,0.30141 -1.63468,-0.94797 -1.63468,-0.94797l-0.02449,-0.04286l-0.04928,-0.00274c0,0 -2.35861,-4.91796 -2.98244,-4.81241c-1.51414,0.25619 -4.11446,2.29963 -4.4402,1.18366c-1.38624,-4.74929 -1.93849,-16.83531 -1.68435,-17.61692c0.14181,-0.43615 0.3313,-0.6876 0.70588,-0.76765c1.13361,-0.24226 15.51316,11.74915 16.19458,13.24859z"/></g></g></svg>